# xmcd
#
# Track frame offsets:
#	150
#	20433
#	40796
#	60238
#	84899
#	101615
#	125154
#	144933
#	167732
#	181476
#	197807
#	222188
#
# Disc length: 3475 seconds
#
# Revision: 1
# Processed by: cddbd v1.5.2PL0 Copyright (c) Steve Scherf et al.
# Submitted via: audiograbber 1.83.01
#
DISCID=9d0d910c
DTITLE=Todd Wolfe Band - Long Road Back
DYEAR=2015
DGENRE=Blues
TTITLE0=Poison
TTITLE1=Mercy
TTITLE2=Outside Woman Blues
TTITLE3=Never Walk Alone
TTITLE4=Peace Unto You
TTITLE5=Fire Me Up
TTITLE6=Long Road Back
TTITLE7=Gone
TTITLE8=Annalee
TTITLE9=One Shot
TTITLE10=Black Queen
TTITLE11=Hoodoo River
EXTD=
EXTT0=
EXTT1=
EXTT2=
EXTT3=
EXTT4=
EXTT5=
EXTT6=
EXTT7=
EXTT8=
EXTT9=
EXTT10=
EXTT11=
PLAYORDER=
